HIERARCHY
ROOT Hips
{
 OFFSET 0.000000 0.000000 0.000000
 CHANNELS 6 Xposition Yposition Zposition Yrotation Xrotation Zrotation
 JOINT Chest
 {
  OFFSET 0.000000 9.585900 0.002600
  CHANNELS 3 Yrotation Xrotation Zrotation
  JOINT Chest2
  {
   OFFSET 0.000000 9.601200 -0.005300
   CHANNELS 3 Yrotation Xrotation Zrotation
   JOINT Chest3
   {
    OFFSET 0.000000 9.561800 0.000000
    CHANNELS 3 Yrotation Xrotation Zrotation
    JOINT Chest4
    {
     OFFSET 0.000000 9.552100 0.000000
     CHANNELS 3 Yrotation Xrotation Zrotation
     JOINT Neck
     {
      OFFSET 0.000000 14.453000 0.000000
      CHANNELS 3 Yrotation Xrotation Zrotation
      JOINT Head
      {
       OFFSET 0.000000 8.936500 -0.011300
       CHANNELS 3 Yrotation Xrotation Zrotation
       End Site
       {
        OFFSET 0.000000 17.073600 -0.006000
       }
      }
     }
     JOINT RightCollar
     {
      OFFSET -2.921100 9.558500 0.000000
      CHANNELS 3 Yrotation Xrotation Zrotation
      JOINT RightShoulder
      {
       OFFSET -13.519700 0.000000 0.000000
       CHANNELS 3 Yrotation Xrotation Zrotation
       JOINT RightElbow
       {
        OFFSET 0.000000 -29.696600 0.000000
        CHANNELS 3 Yrotation Xrotation Zrotation
        JOINT RightWrist
        {
         OFFSET 0.000000 -24.004700 0.000000
         CHANNELS 3 Yrotation Xrotation Zrotation
         End Site
         {
          OFFSET 0.000000 -17.728500 0.000000
         }
        }
       }
      }
     }
     JOINT LeftCollar
     {
      OFFSET 2.921100 9.558500 0.000000
      CHANNELS 3 Yrotation Xrotation Zrotation
      JOINT LeftShoulder
      {
       OFFSET 13.519700 0.000000 0.000000
       CHANNELS 3 Yrotation Xrotation Zrotation
       JOINT LeftElbow
       {
        OFFSET 0.000000 -29.696600 0.000000
        CHANNELS 3 Yrotation Xrotation Zrotation
        JOINT LeftWrist
        {
         OFFSET 0.000000 -24.004700 0.000000
         CHANNELS 3 Yrotation Xrotation Zrotation
         End Site
         {
          OFFSET 0.000000 -17.728500 0.000000
         }
        }
       }
      }
     }
    }
   }
  }
 }
 JOINT RightHip
 {
  OFFSET -7.771700 -0.012900 -0.001300
  CHANNELS 3 Yrotation Xrotation Zrotation
  JOINT RightKnee
  {
   OFFSET 0.000000 -40.869800 0.001200
   CHANNELS 3 Yrotation Xrotation Zrotation
   JOINT RightAnkle
   {
    OFFSET 0.000000 -39.717900 0.002100
    CHANNELS 3 Yrotation Xrotation Zrotation
    JOINT RightToe
    {
     OFFSET 0.000000 -4.965400 11.033500
     CHANNELS 3 Yrotation Xrotation Zrotation
     End Site
     {
      OFFSET 0.000000 -1.423100 5.872300
     }
    }
   }
  }
 }
 JOINT LeftHip
 {
  OFFSET 7.771700 -0.012900 -0.001300
  CHANNELS 3 Yrotation Xrotation Zrotation
  JOINT LeftKnee
  {
   OFFSET 0.000000 -40.869800 0.001200
   CHANNELS 3 Yrotation Xrotation Zrotation
   JOINT LeftAnkle
   {
    OFFSET 0.000000 -39.717900 0.002100
    CHANNELS 3 Yrotation Xrotation Zrotation
    JOINT LeftToe
    {
     OFFSET 0.000000 -4.965400 11.033500
     CHANNELS 3 Yrotation Xrotation Zrotation
     End Site
     {
      OFFSET 0.000000 -1.423100 5.872300
     }
    }
   }
  }
 }
}
MOTION
Frames: 8
Frame Time: 0.008333
-49.279453 46.669443 9.949766 178.562669 -31.498443 -2.959790 -0.584201 19.097682 1.033228 -0.084532 2.255806 0.153179 -0.086306 3.723530 0.235126 -0.534705 16.544720 1.092012 -1.215000 16.600914 -2.784433 -1.281867 -4.963105 -4.737563 0.495656 1.393357 -1.870970 5.113580 -6.252108 -15.269742 -50.255590 -59.272170 100.520292 -1.290679 5.157421 -22.400346 -0.124850 0.171431 1.341365 -4.344870 -2.293302 13.898428 68.193877 -65.784169 -107.347440 -0.273067 13.640253 11.473489 -2.999739 -56.193608 -9.222138 -156.637065 80.025034 -147.892074 -7.820864 -12.798742 -5.908410 -0.061194 -0.323834 0.063235 2.250048 -57.461717 9.046701 -104.040675 80.975736 -109.303268 4.422253 -5.315636 6.769222 0.040388 0.098732 0.011161
-49.285923 46.658220 9.947466 178.535047 -31.496637 -2.961889 -0.587972 19.094294 1.047780 -0.087076 2.255442 0.154458 -0.140402 3.719895 0.252935 -0.524450 16.545834 1.086506 -1.227949 16.589943 -2.746501 -1.318783 -4.984433 -4.662835 0.427408 1.408024 -1.852167 5.200085 -6.248627 -15.311931 -50.327815 -59.246481 100.564503 -1.286902 5.133267 -22.407519 -0.127664 0.159845 1.335355 -4.358466 -2.308619 13.916294 68.205630 -65.727893 -107.305690 -0.338529 13.661667 11.389179 -2.959084 -56.180284 -9.219541 -156.677510 80.041970 -147.918908 -7.837221 -12.810336 -5.904156 -0.057822 -0.288469 0.061609 2.264382 -57.469580 9.067653 -104.101239 80.973707 -109.361679 4.401765 -5.332997 6.771961 0.051267 0.111915 0.017476
-49.293616 46.646594 9.944478 178.519781 -31.497682 -2.962553 -0.612397 19.093508 1.056790 -0.060308 2.257027 0.144550 -0.141812 3.719673 0.253579 -0.546478 16.544718 1.096014 -1.260143 16.573971 -2.687130 -1.347411 -5.014094 -4.594243 0.376941 1.420878 -1.831659 5.174000 -6.238728 -15.293534 -50.342907 -59.276939 100.612546 -1.284210 5.099808 -22.422342 -0.208924 0.133142 1.379277 -4.282676 -2.298185 13.875882 68.213809 -65.801510 -107.409659 -0.291899 13.656347 11.417795 -2.930651 -56.167694 -9.218116 -156.685312 80.054979 -147.920108 -7.863754 -12.819844 -5.905122 -0.046653 -0.246855 0.058102 2.280704 -57.474404 9.074010 -104.168042 80.971074 -109.426268 4.376959 -5.350194 6.771648 0.058817 0.124314 0.027009
-49.301824 46.634679 9.941591 178.500179 -31.498288 -2.956002 -0.642927 19.091631 1.062367 -0.055791 2.257085 0.141306 -0.147565 3.720159 0.255857 -0.583965 16.545284 1.109625 -1.254013 16.555278 -2.666399 -1.368738 -5.050377 -4.531276 0.391972 1.435810 -1.855702 5.153334 -6.238034 -15.280721 -50.381466 -59.298997 100.657730 -1.274897 5.113284 -22.406221 -0.214966 0.114254 1.367765 -4.238984 -2.295344 13.856674 68.243390 -65.845271 -107.491507 -0.287641 13.666804 11.407085 -2.903510 -56.166641 -9.205186 -156.698213 80.065754 -147.951535 -7.890162 -12.809398 -5.895881 -0.042808 -0.223619 0.058494 2.319026 -57.479878 9.071110 -104.196084 80.955352 -109.459512 4.368463 -5.364792 6.789757 0.061561 0.134238 0.029675
-49.314930 46.622643 9.938587 178.479776 -31.499169 -2.916891 -0.673028 19.090721 1.034439 -0.097547 2.255892 0.158543 -0.137325 3.721412 0.249903 -0.601018 16.544122 1.111059 -1.225750 16.546827 -2.685532 -1.408756 -5.100620 -4.429993 0.408103 1.450455 -1.881521 5.188174 -6.244988 -15.301769 -50.420932 -59.298991 100.680922 -1.286556 5.020161 -22.466870 -0.208087 0.102998 1.347860 -4.247296 -2.318756 13.873454 68.274753 -65.846059 -107.527365 -0.299365 13.682545 11.391506 -2.837819 -56.170750 -9.257377 -156.696524 80.066940 -147.964124 -7.895301 -12.773994 -5.894632 -0.043210 -0.228331 0.046024 2.422041 -57.483712 8.992294 -104.222648 80.941435 -109.475400 4.329266 -5.398526 6.787874 0.096246 0.168684 0.046556
-49.323167 46.610917 9.936324 178.451354 -31.499033 -2.899425 -0.678248 19.089249 1.033543 -0.107385 2.254962 0.163741 -0.122530 3.721979 0.241435 -0.634939 16.540960 1.128496 -1.238161 16.518532 -2.637949 -1.408733 -5.137400 -4.400444 0.431408 1.460498 -1.910382 5.107513 -6.233819 -15.242951 -50.369765 -59.363717 100.693172 -1.298301 4.934120 -22.525444 -0.214898 0.095824 1.337184 -4.260736 -2.348745 13.891164 68.277118 -65.815271 -107.499336 -0.354330 13.701668 11.348635 -2.805750 -56.172805 -9.265495 -156.704063 80.071898 -147.981428 -7.884357 -12.764795 -5.907489 -0.057421 -0.223100 0.057640 2.469981 -57.487919 8.975438 -104.247596 80.933775 -109.495123 4.310759 -5.409762 6.780626 0.104039 0.179125 0.059521
-49.330231 46.599849 9.933943 178.427438 -31.502612 -2.887549 -0.667194 19.091873 1.034902 -0.123767 2.253675 0.172731 -0.139289 3.721347 0.247148 -0.645304 16.539029 1.133289 -1.248438 16.488578 -2.593775 -1.407279 -5.175173 -4.373436 0.448294 1.468968 -1.938659 5.064721 -6.232239 -15.205636 -50.474629 -59.363740 100.765194 -1.288823 4.955111 -22.524581 -0.219831 0.089268 1.324776 -4.334516 -2.417461 13.949829 68.254312 -65.734081 -107.396340 -0.406839 13.722813 11.316570 -2.780036 -56.171124 -9.272569 -156.723981 80.075678 -148.003587 -7.884775 -12.748496 -5.908438 -0.044820 -0.224740 0.047041 2.496159 -57.486895 8.975217 -104.267159 80.926814 -109.516011 4.301226 -5.425172 6.776623 0.109587 0.192499 0.067024
-49.336410 46.589629 9.931215 178.398161 -31.512347 -2.874278 -0.672494 19.099018 1.043342 -0.102677 2.254986 0.160436 -0.165930 3.719119 0.262614 -0.656663 16.539408 1.138452 -1.247567 16.465489 -2.570237 -1.413351 -5.218212 -4.330362 0.407814 1.482175 -1.930985 5.098444 -6.241624 -15.214683 -50.519588 -59.355320 100.788373 -1.269025 4.983485 -22.510769 -0.214957 0.083490 1.306078 -4.391913 -2.465351 13.984512 68.266760 -65.732484 -107.384700 -0.404178 13.740916 11.325651 -2.737481 -56.164068 -9.284550 -156.808157 80.089727 -148.085104 -7.904430 -12.716893 -5.904293 -0.045145 -0.237719 0.037589 2.521230 -57.479550 8.982547 -104.319899 80.921188 -109.577146 4.293593 -5.446263 6.784271 0.123114 0.205341 0.067457
